<?xml version="1.0" encoding="UTF-8" standalone="no"?>
<svg
   version="1.1"
   id="svg2"
   width="1259"
   height="788"
   viewBox="0 0 1259 788"
   sodipodi:docname="logo.svg"
   inkscape:version="1.1.2 (0a00cf5339, 2022-02-04)"
   xmlns:inkscape="http://www.inkscape.org/namespaces/inkscape"
   xmlns:sodipodi="http://sodipodi.sourceforge.net/DTD/sodipodi-0.dtd"
   xmlns="http://www.w3.org/2000/svg"
   xmlns:svg="http://www.w3.org/2000/svg">
  <sodipodi:namedview
     id="namedview6"
     pagecolor="#ffffff"
     bordercolor="#666666"
     borderopacity="1.0"
     inkscape:pageshadow="2"
     inkscape:pageopacity="0.0"
     inkscape:pagecheckerboard="0"
     showgrid="false"
     inkscape:zoom="0.62360447"
     inkscape:cx="626.19821"
     inkscape:cy="626.19821"
     inkscape:window-width="1920"
     inkscape:window-height="1016"
     inkscape:window-x="0"
     inkscape:window-y="0"
     inkscape:window-maximized="1"
     inkscape:current-layer="svg2" />
  <defs
     id="defs6" />
  <g
     id="g8"
     transform="matrix(1.1586794,0,0,1.1289804,-149.08281,-347.04974)">
    <path
       style="fill:#000000;stroke-width:1.43165"
       d="m 204.10275,992.71659 c -24.15374,-6.67555 -45.06002,-24.60083 -55.50307,-47.58904 -9.56848,-21.063 -9.01298,-0.78717 -8.58547,-313.37449 l 0.38615,-282.3269 4.78657,-9.3136 c 7.14469,-13.90198 17.46443,-21.90971 32.42774,-25.16274 20.05463,-4.35989 40.85734,6.95798 50.78709,27.63109 l 3.99423,8.3157 0.69694,263.31879 0.69694,263.31877 3.74118,5.96352 c 2.25345,3.59205 6.16991,7.20384 9.84872,9.08256 l 6.10754,3.11905 h 194.40931 c 214.36565,0 201.09522,0.55816 220.02433,-9.25417 17.597,-9.12178 34.74253,-30.26745 41.38019,-51.03438 1.95455,-6.11512 2.56203,-12.21157 2.49085,-24.9977 -0.0821,-14.73684 -0.57997,-18.23313 -3.87438,-27.20337 -7.97543,-21.71607 -23.78552,-39.36527 -44.81483,-50.02787 -16.78643,-8.51134 -19.65368,-9.44216 -70.39059,-22.85181 -24.14885,-6.38247 -48.70488,-13.56273 -54.56895,-15.95611 -65.90808,-26.90002 -110.20925,-83.73253 -120.48682,-154.56853 -2.65336,-18.28781 -1.94751,-47.60659 1.55662,-64.6555 14.2646,-69.40287 62.14101,-126.0761 124.71359,-147.6285 27.48188,-9.46582 15.6973,-8.97471 215.35337,-8.97471 h 182.59737 l 7.8726,3.8937 c 10.39871,5.14316 18.58953,14.03506 23.97573,26.02818 l 4.39237,9.78034 0.69694,259.53489 c 0.63756,237.40756 0.89278,259.91128 2.99348,263.94971 1.26313,2.42816 3.45848,5.48622 4.87856,6.7957 7.08255,6.53082 5.28612,6.39948 98.06235,7.17013 l 88.5109,0.73523 8.6732,4.22633 c 10.6365,5.18305 21.1481,16.44497 24.8813,26.65745 3.9786,10.88351 3.6719,30.01562 -0.6294,39.28085 -4.8036,10.34658 -12.8199,19.09908 -21.9744,23.99244 l -8.163,4.36325 -106.6312,0.4181 c -94.18767,0.36929 -107.8249,0.13969 -116.85957,-1.96716 -13.18855,-3.07561 -18.36721,-5.4011 -29.76379,-13.36552 -15.39798,-10.7609 -26.34671,-25.63888 -33.56879,-45.61569 l -3.1022,-8.581 -0.69694,-254.3883 -0.69693,-254.3883 H 736.97803 c -166.17466,0 -154.04574,-0.77602 -176.89385,11.3177 -8.75412,4.63364 -13.94485,8.80806 -23.18773,18.64776 -18.62879,19.83164 -26.42277,39.25465 -26.42277,65.847 0,34.98489 19.32239,66.08286 51.53636,82.94398 5.62892,2.94624 24.13475,8.71983 52.12244,16.26153 49.23833,13.26801 70.63011,20.42389 89.27308,29.86323 45.98351,23.2825 81.00625,64.58836 95.46155,112.58767 10.61504,35.24759 10.84503,76.42348 0.61902,110.80987 -11.66435,39.22297 -37.19258,75.56337 -68.68212,97.77164 -16.56131,11.67996 -25.31188,16.33563 -42.71527,22.72617 -28.08787,10.31388 -16.02758,9.85555 -256.96299,9.76559 -208.91324,-0.0779 -217.22244,-0.18387 -227.023,-2.89253 z"
       id="path827" />
  </g>
</svg>
